<svg xmlns="http://www.w3.org/2000/svg" viewBox="0 0 64 64"><style>path.logo-shape{fill:#101720;}@media (prefers-color-scheme:dark){path.logo-shape {fill:#fff;}}</style><path class="logo-shape" d="M400.38 488.557c10.822 23.91 35.725 45.364 69.054 60.18-48.179 4.881-102.942-16.443-127.956-37.769-5.336-4.55-9.264-8.967-10.97-13.182-.816-2.015-.992-3.904.385-5.431 1.333-1.481 3.205-2.221 5.376-2.731 3.329-.784 7.244-.926 11.617-.862 14.342.21 32.811 2.674 52.494-.205m100.829 54.866c-29.048-8.661-53.644-22.16-70.06-38.586-9.93-9.937-16.815-20.901-19.508-32.489-.096-.446-5.356-22.775-5.577-23.225-10.379-21.249-24.527-53.696-25.256-56.272 2.167.406 49.728 11.742 65.798 16.782 3.214 1.008 5.963 3.698 8.764 6.697 3.795 4.061 7.438 8.838 11.201 13.05 6.55 7.332 13.734 12.794 21.636 13.581 6.997.696 14.797-2.581 22.641-9.414 13.886-12.095 29.251-36.033 44.162-55.052 6.441-8.214 12.745-15.461 18.87-19.962 3.853-2.831 7.322-4.862 10.764-3.271 2.044.945 3.702 3.133 5.273 5.985 2.203 3.997 3.918 9.229 5.051 15.417 5.841 31.918-4.132 87.127-51.851 138.915l-1.412 2.113-.68 2.304.193 3.287 1.095 2.514c.684 1.092 2.668 3.311 6.694 6.084 6.234 4.294 18.994 11.583 40.694 21.407 3.251 1.472 5.348 2.967 5.802 5.173.341 1.658-.214 3.42-1.065 5.273-1.328 2.892-3.504 5.83-6.177 8.734-9.037 9.819-23.598 18.96-35.849 22.996-3.6 1.186-6.964 1.932-9.857 1.972-1.389.019-2.629.089-3.433-.581-2.657-2.215-4.631-6.094-6.644-10.439-3.954-8.532-7.459-18.809-11.861-26.713-5.046-9.062-11.353-15.192-19.408-16.28m-69.203-111.14c-6.201 3.023-9.174 9.707-6.635 14.916s9.636 6.984 15.837 3.961 9.174-9.707 6.635-14.916-9.636-6.984-15.837-3.961" transform="translate(-72.005 -73.5) scale(.22131)" /></svg>
